# xmcd
#
# Track frame offsets:
#	150
#	12847
#	27685
#	41324
#	55517
#	67828
#	80290
#	92249
#	106473
#	126151
#	139784
#	153107
#	168080
#	182213
#	194379
#	208649
#	224221
#	238161
#	251809
#	264836
#	276411
#	287799
#	300396
#	310328
#	322614
#
# Disc length: 4490 seconds
#
# Revision: 0
# Processed by: cddbd v1.5.2PL0 Copyright (c) Steve Scherf et al.
# Submitted via: audiograbber 1.83.01
#
DISCID=61118819
DTITLE=Various Artist - The War Years CD5
DYEAR=1900
DGENRE=Oldies
TTITLE0=The Mayfair Orchestra - Land Of Hope And Glory
TTITLE1=Glenn Miller - Pennsylvania 6-5000
TTITLE2=Oscar Peterson - I Got Rhythm
TTITLE3=George Formby - With My Little Ukelele In My Hand
TTITLE4=Bing Crosby and The Andrews Sisters - Ac-cent-tchu-ate The Positive
TTITLE5=Gracie Fields - Scarlet Ribbons
TTITLE6=Vera Lynn - Auf Wiederseh'n, Sweetheart
TTITLE7=Charlie Parker - Billie's Bounce
TTITLE8=Muggsy Spanier - Sweet Lorraine
TTITLE9=Duke Ellington - Take The 'A' Train
TTITLE10=Doris Day - Till The End Of Time
TTITLE11=Judy Garland - You'll Never Walk Alone
TTITLE12=Artie Shaw - Smoke Gets In Your Eyes
TTITLE13=Bing Crosby - Deep In The Heart Of Texas
TTITLE14=Frank Sinatra - Day By Day
TTITLE15=Glenn Miller - Tuxedo Junction
TTITLE16=Perry Como - I'm Always Chasing Rainbows
TTITLE17=Lester Young - Five O'clock Whistle
TTITLE18=Count Basie - Somebody Stole My Gal
TTITLE19=Doris Day - I Got The Sun In The Morning
TTITLE20=Bing Crosby - Swinging On A Star
TTITLE21=Judy Garland - Over The Rainbow
TTITLE22=Frank Sinatra - She's Funny That Way
TTITLE23=Jo Stafford - Walkin' My Baby Back Home
TTITLE24=Dick Haymes and Louanne Hogan and Jeanne Crain - It Might As Well Be Sprin
TTITLE24=g
EXTD=(p)2009 Weton-Wesgram BV
EXTT0=
EXTT1=
EXTT2=
EXTT3=
EXTT4=
EXTT5=
EXTT6=
EXTT7=
EXTT8=
EXTT9=
EXTT10=
EXTT11=
EXTT12=
EXTT13=
EXTT14=
EXTT15=
EXTT16=
EXTT17=
EXTT18=
EXTT19=
EXTT20=
EXTT21=
EXTT22=
EXTT23=
EXTT24=
PLAYORDER=
